<svg width="60" height="60" viewBox="0 0 60 60" fill="none" xmlns="http://www.w3.org/2000/svg">
<rect width="60" height="60" rx="10" fill="#E8E8E8"/>
<path d="M12.7235 10.6268C12.2157 11.2359 11.959 12.0156 12.0053 12.8072V47.1979C11.9616 47.9892 12.218 48.7679 12.7235 49.3783L12.841 49.4958L32.0992 30.2245V29.7675L12.841 10.5093L12.7235 10.6268Z" fill="url(#paint0_linear_85_524)"/>
<path d="M38.5227 36.6484L32.099 30.2246V29.7677L38.5227 23.3569L38.6663 23.4353L46.2783 27.757C48.4587 28.9843 48.4587 31.008 46.2783 32.2484L38.6663 36.5701L38.5227 36.6484Z" fill="url(#paint1_linear_85_524)"/>
<path d="M38.6668 36.5697L32.1386 30.0415L12.7236 49.3781C13.1711 49.746 13.7283 49.9547 14.3074 49.9712C14.8865 49.9878 15.4547 49.8113 15.9225 49.4695L38.6276 36.5697" fill="url(#paint2_linear_85_524)"/>
<path d="M38.6668 23.435L15.9225 10.5222C15.4597 10.1664 14.8878 9.98229 14.3043 10.0013C13.7209 10.0204 13.1622 10.2414 12.7236 10.6266L32.0994 30.0024L38.6668 23.435Z" fill="url(#paint3_linear_85_524)"/>
<path opacity="0.1" d="M38.523 36.4263L15.9223 49.2477C15.4714 49.5836 14.9242 49.7651 14.362 49.7651C13.7998 49.7651 13.2526 49.5836 12.8018 49.2477L12.6842 49.3652L12.8018 49.4827C13.2526 49.8186 13.7998 50.0001 14.362 50.0001C14.9242 50.0001 15.4714 49.8186 15.9223 49.4827L38.6274 36.5829L38.523 36.4263Z" fill="black"/>
<path opacity="0.07" d="M12.7234 49.1686C12.2171 48.5535 11.9608 47.7705 12.0053 46.9751V47.1971C11.9615 47.9884 12.218 48.767 12.7234 49.3775L12.8409 49.26L12.7234 49.1686Z" fill="black"/>
<path opacity="0.07" d="M46.2783 32.0126L38.5228 36.4257L38.6664 36.5693L46.2783 32.1954C46.7248 31.9991 47.1111 31.6877 47.3979 31.2932C47.6846 30.8986 47.8615 30.435 47.9104 29.9497C47.8213 30.3983 47.6269 30.8193 47.3431 31.178C47.0593 31.5366 46.6944 31.8227 46.2783 32.0126Z" fill="black"/>
<path opacity="0.3" d="M15.9225 10.7574L46.2787 27.9789C46.6907 28.1641 47.0532 28.4439 47.3368 28.7956C47.6204 29.1472 47.817 29.5608 47.9108 30.0027C47.8646 29.5166 47.6887 29.0518 47.4017 28.6568C47.1146 28.2618 46.7268 27.951 46.2787 27.757L15.9225 10.5224C13.7812 9.29513 12.0055 10.3135 12.0055 12.8073V13.0293C12.0055 10.5485 13.7812 9.51709 15.9225 10.7574Z" fill="white"/>
<defs>
<linearGradient id="paint0_linear_85_524" x1="30.4019" y1="12.4416" x2="4.30204" y2="38.5415" gradientUnits="userSpaceOnUse">
<stop stop-color="#008EFF"/>
<stop offset="0.01" stop-color="#008FFF"/>
<stop offset="0.26" stop-color="#00ACFF"/>
<stop offset="0.51" stop-color="#00C0FF"/>
<stop offset="0.76" stop-color="#00CDFF"/>
<stop offset="1" stop-color="#00D1FF"/>
</linearGradient>
<linearGradient id="paint1_linear_85_524" x1="46.5394" y1="30.0027" x2="8.9107" y2="30.0027" gradientUnits="userSpaceOnUse">
<stop stop-color="#FFD800"/>
<stop offset="1" stop-color="#FF8A00"/>
</linearGradient>
<linearGradient id="paint2_linear_85_524" x1="35.1024" y1="33.5667" x2="-0.280595" y2="68.9497" gradientUnits="userSpaceOnUse">
<stop stop-color="#FF3A44"/>
<stop offset="1" stop-color="#B11162"/>
</linearGradient>
<linearGradient id="paint3_linear_85_524" x1="7.84052" y1="-0.823889" x2="23.6519" y2="14.9744" gradientUnits="userSpaceOnUse">
<stop stop-color="#328E71"/>
<stop offset="0.07" stop-color="#2D9571"/>
<stop offset="0.48" stop-color="#15BD74"/>
<stop offset="0.8" stop-color="#06D575"/>
<stop offset="1" stop-color="#00DE76"/>
</linearGradient>
</defs>
</svg>
