<svg width="40" height="40" viewBox="0 0 40 40" fill="none" xmlns="http://www.w3.org/2000/svg">
<circle cx="20" cy="20" r="20" fill="white"/>
<g clip-path="url(#clip0_72_245)">
<path d="M20 5C11.7157 5 5 11.7157 5 20C5 28.2843 11.7157 35 20 35C28.2843 35 35 28.2843 35 20C35 11.7157 28.2843 5 20 5Z" fill="#40B3E0"/>
<path d="M27.2987 13.6285L24.6196 27.1364C24.6196 27.1364 24.2449 28.0732 23.2145 27.6235L17.0319 22.8835L14.7838 21.797L10.9994 20.5229C10.9994 20.5229 10.4186 20.3169 10.3623 19.8672C10.3062 19.4176 11.0181 19.1741 11.0181 19.1741L26.0622 13.2725C26.0622 13.2725 27.2987 12.7292 27.2987 13.6285Z" fill="white"/>
<path d="M16.5568 26.9849C16.5568 26.9849 16.3763 26.968 16.1514 26.256C15.9267 25.5441 14.7838 21.7971 14.7838 21.7971L23.8702 16.0268C23.8702 16.0268 24.3949 15.7083 24.3761 16.0268C24.3761 16.0268 24.4697 16.0829 24.1887 16.3452C23.9077 16.6076 17.0507 22.7713 17.0507 22.7713" fill="#D2E5F1"/>
<path d="M19.4025 24.701L16.957 26.9306C16.957 26.9306 16.7659 27.0757 16.5567 26.9848L17.025 22.8433" fill="#B5CFE4"/>
</g>
<defs>
<clipPath id="clip0_72_245">
<rect width="30" height="30" fill="white" transform="translate(5 5)"/>
</clipPath>
</defs>
</svg>
