<svg width="40" height="40" viewBox="0 0 40 40" fill="none" xmlns="http://www.w3.org/2000/svg">
<circle cx="20" cy="20" r="20" fill="white"/>
<g clip-path="url(#clip0_72_246)">
<path d="M20 5C11.716 5 5 11.7157 5 20C5 28.2843 11.716 35 20 35C28.284 35 35 28.2843 35 20C35 11.7157 28.284 5 20 5ZM27.6088 21.6223C28.3079 22.3052 29.0476 22.9478 29.6752 23.7013C29.9532 24.0346 30.2153 24.3792 30.4148 24.7669C30.6996 25.3196 30.4425 25.9257 29.9477 25.9586L26.8747 25.958C26.081 26.0236 25.4494 25.7035 24.9169 25.1609C24.4919 24.7285 24.0975 24.2666 23.6881 23.8194C23.5208 23.6359 23.3447 23.4631 23.1347 23.3272C22.7158 23.0546 22.3518 23.1381 22.1118 23.5758C21.8672 24.0211 21.8114 24.5146 21.788 25.0102C21.7546 25.7348 21.5361 25.9242 20.809 25.9583C19.2554 26.031 17.7814 25.7953 16.4114 25.0121C15.2028 24.3212 14.2673 23.3462 13.4522 22.2423C11.8649 20.0902 10.6492 17.7283 9.55693 15.2985C9.3111 14.7513 9.49095 14.4585 10.0946 14.4472C11.0976 14.4278 12.1006 14.4303 13.1035 14.4462C13.5117 14.4527 13.7818 14.6862 13.9386 15.0714C14.4806 16.4049 15.1451 17.6737 15.9777 18.8503C16.1996 19.1637 16.4261 19.4761 16.7486 19.6974C17.1047 19.9417 17.376 19.861 17.5438 19.4635C17.6513 19.2109 17.6976 18.9409 17.7209 18.6702C17.8007 17.743 17.8102 16.8162 17.6721 15.8927C17.5862 15.3148 17.2612 14.9416 16.6851 14.8323C16.3917 14.7768 16.4347 14.6681 16.5774 14.5006C16.8251 14.2108 17.0571 14.0316 17.5208 14.0316L20.9928 14.031C21.5401 14.1384 21.6628 14.3839 21.7371 14.9351L21.7402 18.7936C21.7337 19.0069 21.8473 19.6391 22.2303 19.7787C22.5372 19.88 22.7397 19.6339 22.9233 19.4396C23.7559 18.556 24.3492 17.5131 24.8804 16.4338C25.1149 15.9577 25.3171 15.4652 25.5136 14.9717C25.6596 14.6068 25.8868 14.4272 26.2986 14.4333L29.642 14.4373C29.7406 14.4373 29.8406 14.4383 29.9382 14.4551C30.5017 14.5515 30.6561 14.794 30.4817 15.3436C30.2074 16.2073 29.6743 16.9266 29.1531 17.6479C28.5946 18.4201 27.9989 19.1652 27.4458 19.9408C26.9376 20.6497 26.9778 21.0066 27.6088 21.6223Z" fill="#2787F5"/>
</g>
<defs>
<clipPath id="clip0_72_246">
<rect width="30" height="30" fill="white" transform="translate(5 5)"/>
</clipPath>
</defs>
</svg>
