<svg width="40" height="40" viewBox="0 0 40 40" fill="none" xmlns="http://www.w3.org/2000/svg">
<circle cx="20" cy="20" r="20" fill="white"/>
<path d="M20 35C28.2843 35 35 28.2843 35 20C35 11.7157 28.2843 5 20 5C11.7157 5 5 11.7157 5 20C5 28.2843 11.7157 35 20 35Z" fill="#F96600"/>
<path d="M19.0778 23.8319C17.6239 23.6802 16.3131 23.3205 15.1915 22.4444C15.0517 22.3353 14.9085 22.2296 14.7807 22.1035C14.2898 21.6313 14.2404 21.091 14.629 20.5353C14.9614 20.058 15.5188 19.9302 16.1 20.2046C16.2116 20.2611 16.3188 20.3261 16.4205 20.3989C17.4598 21.1053 18.685 21.4884 19.9416 21.4999C21.1983 21.5114 22.4302 21.1509 23.4824 20.4637C23.6834 20.3007 23.9154 20.1802 24.1642 20.1091C24.3956 20.0407 24.6433 20.0521 24.8674 20.1415C25.0915 20.2308 25.2791 20.3929 25.4 20.6018C25.7068 21.1029 25.7034 21.5904 25.325 21.979C24.745 22.5656 24.044 23.0188 23.271 23.3069C22.5184 23.5773 21.7352 23.753 20.9392 23.8302C21.0585 23.9614 21.1097 24.0245 21.1915 24.0995C22.2705 25.1853 23.3546 26.266 24.4301 27.3535C24.6015 27.5092 24.7177 27.7164 24.7613 27.9438C24.805 28.1712 24.7737 28.4067 24.6722 28.6148C24.5688 28.843 24.4005 29.0356 24.1883 29.1687C23.9761 29.3018 23.7294 29.3694 23.479 29.3631C23.1861 29.3343 22.915 29.1954 22.7205 28.9745C21.9057 28.1546 21.0756 27.3501 20.2778 26.5148C20.046 26.2728 19.9369 26.3188 19.729 26.5285C18.9091 27.3807 18.0756 28.204 17.2386 29.029C17.0833 29.2013 16.875 29.317 16.6467 29.358C16.4184 29.3991 16.1829 29.3631 15.9773 29.2557C15.7545 29.1517 15.5665 28.9855 15.4358 28.7772C15.3052 28.5688 15.2375 28.3272 15.2409 28.0813C15.2655 27.7774 15.4073 27.495 15.6364 27.2938C16.7068 26.2268 17.7739 25.1591 18.8375 24.091C18.9091 24.0177 18.9773 23.941 19.0778 23.8319Z" fill="white"/>
<path d="M19.9625 20.1158C19.0225 20.1104 18.1054 19.8258 17.3273 19.2984C16.5493 18.7709 15.9454 18.0242 15.5923 17.1531C15.2392 16.2819 15.1527 15.3255 15.3439 14.4052C15.5351 13.4849 15.9954 12.642 16.6662 11.9836C17.3371 11.3252 18.1884 10.8809 19.1122 10.7069C20.0359 10.533 20.9905 10.6374 21.8549 11.0067C22.7193 11.3761 23.4545 11.9939 23.9673 12.7817C24.4801 13.5695 24.7474 14.4918 24.7352 15.4317C24.7182 16.6841 24.207 17.879 23.3131 18.7563C22.4193 19.6336 21.215 20.1222 19.9625 20.1158ZM22.3199 15.3653C22.3185 14.9058 22.1809 14.4571 21.9244 14.0759C21.6678 13.6947 21.304 13.3983 20.8788 13.224C20.4537 13.0497 19.9864 13.0055 19.5362 13.097C19.0859 13.1884 18.6729 13.4115 18.3495 13.7378C18.026 14.0641 17.8067 14.479 17.7192 14.9301C17.6317 15.3811 17.68 15.848 17.858 16.2716C18.036 16.6951 18.3357 17.0564 18.7192 17.3095C19.1026 17.5627 19.5525 17.6964 20.0119 17.6937C20.3166 17.693 20.6181 17.6322 20.8991 17.5147C21.1801 17.3972 21.4352 17.2253 21.6497 17.009C21.8641 16.7926 22.0337 16.536 22.1487 16.254C22.2637 15.9719 22.3219 15.6699 22.3199 15.3653Z" fill="white"/>
</svg>
