<svg width="60" height="60" viewBox="0 0 60 60" fill="none" xmlns="http://www.w3.org/2000/svg">
<rect width="60" height="60" rx="10" fill="#E8E8E8"/>
<g clip-path="url(#clip0_85_537)">
<path d="M21.224 10C13.0054 10 10 13.0054 10 21.2216V38.7784C10 46.9946 13.0054 50 21.224 50H38.7616C46.9802 50 49.9904 46.9946 49.9904 38.7784V21.2216C49.9904 13.0054 46.985 10 38.7664 10H21.224Z" fill="url(#paint0_linear_85_537)"/>
<path d="M27.4487 33.2H29.0535L28.2487 31.3261L27.4487 33.2ZM27.0523 34.1441L26.5718 35.2348H25.4859L27.7922 30.0024H28.7291L31.0258 35.2348H29.9111L29.4306 34.1441H27.0523ZM44.5081 35.23H45.5556V30H44.5081V35.23ZM40.3303 32.9838H42.2523V32.0228H40.3303V30.961H43.1363V30H39.2925V35.23H43.2469V34.2691H40.3303V32.9838ZM36.1694 33.6036L34.9802 30H34.1129L32.9237 33.6036L31.7682 30H30.6366L32.4625 35.2324H33.3418L34.543 31.7946L35.7442 35.2324H36.6306L38.43 30H37.3273L36.1694 33.6036ZM23.8907 33.0006C23.8907 33.851 23.4679 34.3075 22.6895 34.3075C21.9111 34.3075 21.4883 33.839 21.4883 32.9646V30H20.4264V32.9934C20.4264 34.4661 21.2457 35.3117 22.6703 35.3117C24.0949 35.3117 24.9357 34.4517 24.9357 32.9501V30H23.8739L23.8907 33.0006ZM17.9063 30H18.9682V35.2372H17.9063V33.1111H15.5039V35.2372H14.442V30H15.5039V32.1117H17.9063V30Z" fill="white"/>
<path d="M30 23.3332C28.2325 23.3313 26.5379 22.6283 25.2881 21.3784C24.0382 20.1286 23.3352 18.434 23.3333 16.6665H24.2751C24.2751 18.1848 24.8782 19.641 25.9519 20.7146C27.0255 21.7883 28.4817 22.3914 30 22.3914C31.5183 22.3914 32.9745 21.7883 34.0481 20.7146C35.1218 19.641 35.7249 18.1848 35.7249 16.6665H36.6667C36.6648 18.434 35.9618 20.1286 34.7119 21.3784C33.4621 22.6283 31.7675 23.3313 30 23.3332Z" fill="white"/>
</g>
<defs>
<linearGradient id="paint0_linear_85_537" x1="30.0192" y1="10.0408" x2="30.0192" y2="49.9976" gradientUnits="userSpaceOnUse">
<stop stop-color="#FB6361"/>
<stop offset="1" stop-color="#ED3E45"/>
</linearGradient>
<clipPath id="clip0_85_537">
<rect width="40" height="40" fill="white" transform="translate(10 10)"/>
</clipPath>
</defs>
</svg>
