<svg width="60" height="60" viewBox="0 0 60 60" fill="none" xmlns="http://www.w3.org/2000/svg">
<rect width="60" height="60" rx="10" fill="#E8E8E8"/>
<path d="M47.3822 39.3453C46.4436 41.4271 45.9913 42.3566 44.7822 44.1975C43.0959 46.7657 40.7141 49.9656 37.7664 49.9929C35.1482 50.0156 34.4755 48.2884 30.9187 48.3088C27.3642 48.327 26.6232 50.0247 24.0028 49.9997C21.0551 49.9725 18.7983 47.0838 17.1097 44.5134C12.3893 37.3316 11.8961 28.8999 14.8074 24.4158C16.8756 21.2317 20.1415 19.3681 23.2096 19.3681C26.3346 19.3681 28.3005 21.0817 30.8823 21.0817C33.3891 21.0817 34.9164 19.3636 38.53 19.3636C41.2572 19.3636 44.1527 20.8522 46.214 23.4204C39.4595 27.1226 40.555 36.768 47.3822 39.3453ZM35.7891 16.4954C37.1005 14.8091 38.0982 12.4318 37.7368 10C35.5914 10.1477 33.0846 11.5114 31.6187 13.2909C30.2914 14.9045 29.1937 17.2977 29.6187 19.6249C31.9596 19.6954 34.3823 18.2977 35.7891 16.4954Z" fill="black"/>
</svg>
