<svg width="130" height="60" viewBox="0 0 130 60" fill="none" xmlns="http://www.w3.org/2000/svg">
<rect width="130" height="60" rx="10" fill="#E8E8E8"/>
<g clip-path="url(#clip0_85_557)">
<path d="M44.7456 35.0347H45.1072V25.6123H43.9772V30.0225L44.0977 32.7168L37.9656 25.6274H37.5738V35.0197H38.6888V30.5042L38.5984 27.9303L44.7456 35.0347ZM53.4541 32.7017L54.554 35.0197H55.7142V34.8692L51.3749 25.5822H50.8627L46.4783 34.8692V35.0197H47.6535L48.7533 32.7017H53.4541ZM51.1037 27.3433L53.0775 31.7384H49.13L51.1037 27.3433ZM56.3018 32.4609C56.362 34.3875 58.3358 35.2304 60.0835 35.1853C61.786 35.1401 63.7297 34.4176 63.7297 32.4007C63.7297 30.3235 61.9819 29.9774 60.1136 29.7666C58.9686 29.6161 57.6126 29.571 57.6126 28.1711C57.6126 26.9369 58.9083 26.5004 59.9328 26.4703C61.0026 26.4703 62.2682 26.8466 62.3736 28.0357H63.4283C63.3681 26.2144 61.5299 25.4167 59.9027 25.4618C58.2454 25.4618 56.4826 26.3348 56.4826 28.1862C56.4826 30.0677 58.2002 30.5042 59.9027 30.6848C61.1834 30.8654 62.5996 30.8805 62.5996 32.4007C62.5544 33.7704 61.1683 34.1617 60.0534 34.2069C58.8932 34.2069 57.4468 33.7252 57.3715 32.4609H56.2867H56.3018ZM72.8149 35.0197V25.6274H71.6849V29.586H66.7129V25.6274H65.5979V35.0197H66.7129V30.6095H71.6849V35.0197H72.8149ZM76.9281 32.1448C76.1145 32.1448 75.4064 32.1448 74.6078 32.1448C74.5476 36.284 82.2165 36.1787 82.2165 32.2201C82.2165 29.872 80.3934 29.6312 78.5252 29.4204C77.6814 29.3301 76.9733 29.1796 77.0336 28.4722C77.1089 27.3583 79.6401 27.253 79.6401 28.5023C80.4537 28.5023 81.0715 28.5023 81.9303 28.5023C81.9905 24.4534 74.6681 24.4534 74.7585 28.5023C74.7886 30.5493 76.1296 31.2417 78.1786 31.3922C79.1128 31.4524 79.8962 31.5578 79.8962 32.205C79.8962 33.3038 76.9582 33.3339 76.9582 32.1448H76.9281ZM85.3504 27.7647V35.0197C86.1489 35.0197 86.9324 35.0197 87.7309 35.0197V27.7647H90.0362C90.0362 27.0423 90.0362 26.3348 90.0362 25.6123H83.0452C83.0452 26.3198 83.0452 27.0423 83.0452 27.7647H85.3504ZM100.598 30.3235C100.598 23.8212 90.9402 23.8212 90.9402 30.3235C90.9402 36.8409 100.598 36.8409 100.598 30.3235ZM93.4262 30.3235C93.4262 26.9369 98.1421 26.9369 98.1421 30.3235C98.1421 33.7403 93.4262 33.7403 93.4262 30.3235ZM108.523 31.6782C110.904 30.0677 110.226 25.6274 106.534 25.6123C105.163 25.6123 103.762 25.6123 102.406 25.6123C102.406 28.7582 102.406 31.8889 102.406 35.0046C103.189 35.0046 104.003 35.0046 104.817 35.0046V32.2351H106.067L107.679 35.0046H110.361V34.6584L108.523 31.6782ZM106.534 30.0827H104.817C104.817 29.3301 104.817 28.5324 104.817 27.7647C105.374 27.7647 105.977 27.7497 106.534 27.7647C107.905 27.7798 107.845 30.0827 106.534 30.0827ZM117.684 25.6123C115.484 25.6123 113.992 25.6123 111.808 25.6123C111.808 28.7281 111.808 31.8739 111.808 35.0046C113.992 35.0046 115.604 35.0046 117.804 35.0046C117.804 34.2972 117.804 33.5747 117.804 32.8673C116.388 32.8673 115.589 32.8673 114.203 32.8673C114.203 32.3104 114.203 31.7685 114.203 31.2116H117.397C117.397 30.5042 117.397 29.7817 117.397 29.0742H114.203V27.7497C115.589 27.7497 116.282 27.7497 117.684 27.7497C117.684 27.0272 117.684 26.3047 117.684 25.5973V25.6123Z" fill="#434242"/>
<path d="M29.1817 22.6922C29.257 22.5718 29.1666 22.4062 29.0159 22.4062H25.8971C25.7464 22.4062 25.656 22.5568 25.7314 22.6922L27.2833 25.3865C27.3586 25.5069 27.5394 25.5069 27.6147 25.3865L29.1817 22.6922Z" fill="#AE2B30"/>
<path d="M25.882 37.8041C25.8067 37.9245 25.8971 38.0901 26.0478 38.0901H29.1666C29.3173 38.0901 29.4077 37.9396 29.3323 37.8041L27.7654 35.1098C27.69 34.9894 27.5092 34.9894 27.4339 35.1098L25.867 37.8041H25.882Z" fill="#AE2B30"/>
<path d="M31.5019 25.7927C31.6526 25.7927 31.743 25.6422 31.6677 25.5067L30.1007 22.8125C30.0254 22.6921 29.8446 22.6921 29.7693 22.8125L28.2023 25.5067C28.127 25.6272 28.2174 25.7927 28.3681 25.7927H31.4869H31.5019Z" fill="#AE2B30"/>
<path d="M29.7693 29.3299C29.8446 29.4503 30.0254 29.4503 30.1007 29.3299L31.6677 26.6356C31.743 26.5152 31.6526 26.3496 31.5019 26.3496H28.3831C28.2325 26.3496 28.1421 26.5001 28.2174 26.6356L29.7843 29.3299H29.7693Z" fill="#AE2B30"/>
<path d="M33.8523 29.8718C34.003 29.8718 34.0934 29.7213 34.0181 29.5858L32.4511 26.8916C32.3758 26.7712 32.195 26.7712 32.1197 26.8916L30.5527 29.5858C30.4774 29.7063 30.5678 29.8718 30.7185 29.8718H33.8373H33.8523Z" fill="#AE2B30"/>
<path d="M32.1347 33.409C32.2101 33.5294 32.3909 33.5294 32.4662 33.409L34.0331 30.7147C34.1085 30.5943 34.0181 30.4287 33.8674 30.4287H30.7486C30.5979 30.4287 30.5075 30.5792 30.5829 30.7147L32.1498 33.409H32.1347Z" fill="#AE2B30"/>
<path d="M28.2174 33.6801C28.1421 33.8005 28.2325 33.9661 28.3831 33.9661H31.5019C31.6526 33.9661 31.743 33.8155 31.6677 33.6801L30.1007 30.9858C30.0254 30.8654 29.8446 30.8654 29.7693 30.9858L28.2023 33.6801H28.2174Z" fill="#AE2B30"/>
<path d="M29.7693 37.4881C29.8446 37.6085 30.0254 37.6085 30.1007 37.4881L31.6677 34.7938C31.743 34.6734 31.6526 34.5078 31.5019 34.5078H28.3831C28.2325 34.5078 28.1421 34.6583 28.2174 34.7938L29.7843 37.4881H29.7693Z" fill="#AE2B30"/>
<path d="M22.9892 22.5267C23.0646 22.4063 22.9742 22.2407 22.8235 22.2407H19.7047C19.554 22.2407 19.4636 22.3912 19.539 22.5267L21.0908 25.221C21.1662 25.3414 21.347 25.3414 21.4223 25.221L22.9892 22.5267Z" fill="#363789"/>
<path d="M19.4636 37.789C19.3883 37.9094 19.4787 38.0749 19.6294 38.0749H22.7482C22.8988 38.0749 22.9892 37.9244 22.9139 37.789L21.347 35.0947C21.2716 34.9743 21.0908 34.9743 21.0155 35.0947L19.4486 37.789H19.4636Z" fill="#363789"/>
<path d="M25.2643 25.7776C25.415 25.7776 25.5054 25.6271 25.43 25.4916L23.8631 22.7973C23.7878 22.6769 23.607 22.6769 23.5316 22.7973L21.9647 25.4916C21.8894 25.612 21.9798 25.7776 22.1304 25.7776H25.2492H25.2643Z" fill="#363789"/>
<path d="M23.5316 29.3001C23.607 29.4205 23.7878 29.4205 23.8631 29.3001L25.43 26.6058C25.5054 26.4854 25.415 26.3198 25.2643 26.3198H22.1455C21.9948 26.3198 21.9044 26.4703 21.9798 26.6058L23.5467 29.3001H23.5316Z" fill="#363789"/>
<path d="M27.6147 29.8567C27.7654 29.8567 27.8558 29.7062 27.7804 29.5707L26.2135 26.8764C26.1382 26.756 25.9574 26.756 25.882 26.8764L24.3151 29.5707C24.2398 29.6911 24.3302 29.8567 24.4808 29.8567H27.5996H27.6147Z" fill="#363789"/>
<path d="M25.8971 33.3787C25.9724 33.4991 26.1532 33.4991 26.2286 33.3787L27.7955 30.6844C27.8709 30.564 27.7805 30.3984 27.6298 30.3984H24.511C24.3603 30.3984 24.2699 30.549 24.3452 30.6844L25.9122 33.3787H25.8971Z" fill="#363789"/>
<path d="M21.9798 33.6498C21.9044 33.7702 21.9948 33.9358 22.1455 33.9358H25.2643C25.415 33.9358 25.5054 33.7853 25.43 33.6498L23.8631 30.9555C23.7878 30.8351 23.607 30.8351 23.5316 30.9555L21.9647 33.6498H21.9798Z" fill="#363789"/>
<path d="M23.5316 37.4578C23.607 37.5782 23.7878 37.5782 23.8631 37.4578L25.43 34.7635C25.5054 34.6431 25.415 34.4775 25.2643 34.4775H22.1455C21.9948 34.4775 21.9044 34.6281 21.9798 34.7635L23.5467 37.4578H23.5316Z" fill="#363789"/>
<path d="M16.9927 22.4212C17.068 22.3008 16.9776 22.1353 16.8269 22.1353H13.7081C13.5575 22.1353 13.4671 22.2858 13.5424 22.4212L15.0943 25.1155C15.1696 25.2359 15.3504 25.2359 15.4257 25.1155L16.9927 22.4212Z" fill="#D9DADA"/>
<path d="M13.2411 37.6835C13.1657 37.8039 13.2561 37.9695 13.4068 37.9695H16.5256C16.6763 37.9695 16.7667 37.819 16.6913 37.6835L15.1244 34.9892C15.0491 34.8688 14.8683 34.8688 14.7929 34.9892L13.226 37.6835H13.2411Z" fill="#D9DADA"/>
<path d="M19.3582 25.6726C19.5088 25.6726 19.5992 25.5221 19.5239 25.3866L17.9569 22.6924C17.8816 22.5719 17.7008 22.5719 17.6255 22.6924L16.0585 25.3866C15.9832 25.507 16.0736 25.6726 16.2243 25.6726H19.3431H19.3582Z" fill="#D9DADA"/>
<path d="M17.3091 29.1946C17.3844 29.315 17.5652 29.315 17.6406 29.1946L19.2075 26.5003C19.2828 26.3799 19.1924 26.2144 19.0418 26.2144H15.9229C15.7723 26.2144 15.6819 26.3649 15.7572 26.5003L17.3242 29.1946H17.3091Z" fill="#D9DADA"/>
<path d="M21.3922 29.7512C21.5428 29.7512 21.6332 29.6007 21.5579 29.4652L19.991 26.771C19.9156 26.6506 19.7348 26.6506 19.6595 26.771L18.0926 29.4652C18.0172 29.5856 18.1076 29.7512 18.2583 29.7512H21.3771H21.3922Z" fill="#D9DADA"/>
<path d="M19.6746 33.2737C19.7499 33.3941 19.9307 33.3941 20.006 33.2737L21.573 30.5794C21.6483 30.459 21.5579 30.2935 21.4072 30.2935H18.2884C18.1378 30.2935 18.0474 30.444 18.1227 30.5794L19.6896 33.2737H19.6746Z" fill="#D9DADA"/>
<path d="M15.7572 33.5443C15.6819 33.6648 15.7723 33.8303 15.9229 33.8303H19.0418C19.1924 33.8303 19.2828 33.6798 19.2075 33.5443L17.6406 30.8501C17.5652 30.7297 17.3844 30.7297 17.3091 30.8501L15.7421 33.5443H15.7572Z" fill="#D9DADA"/>
<path d="M17.3091 37.3528C17.3844 37.4732 17.5652 37.4732 17.6406 37.3528L19.2075 34.6585C19.2828 34.5381 19.1924 34.3726 19.0418 34.3726H15.9229C15.7723 34.3726 15.6819 34.5231 15.7572 34.6585L17.3242 37.3528H17.3091Z" fill="#D9DADA"/>
</g>
<defs>
<clipPath id="clip0_85_557">
<rect width="105" height="16" fill="white" transform="translate(13 22)"/>
</clipPath>
</defs>
</svg>
