<svg width="20" height="20" viewBox="0 0 20 20" fill="none" xmlns="http://www.w3.org/2000/svg">
<g id="Layer 3">
<g id="66.odnoklassniki">
<path id="background" d="M10 20C15.5228 20 20 15.5228 20 10C20 4.47715 15.5228 0 10 0C4.47715 0 0 4.47715 0 10C0 15.5228 4.47715 20 10 20Z" fill="#F96600"/>
<g id="icon">
<path id="Vector" d="M9.38517 12.5543C8.41585 12.4531 7.54199 12.2133 6.79426 11.6293C6.70108 11.5565 6.60563 11.4861 6.5204 11.402C6.19313 11.0872 6.16017 10.727 6.41926 10.3565C6.64085 10.0383 7.01245 9.95312 7.39995 10.1361C7.47436 10.1737 7.54578 10.217 7.61358 10.2656C8.3065 10.7365 9.12326 10.9919 9.96102 10.9996C10.7988 11.0073 11.6201 10.7669 12.3215 10.3088C12.4556 10.2002 12.6102 10.1198 12.7761 10.0724C12.9303 10.0268 13.0955 10.0344 13.2449 10.094C13.3943 10.1535 13.5194 10.2616 13.5999 10.4008C13.8045 10.7349 13.8022 11.0599 13.5499 11.319C13.1633 11.7101 12.696 12.0122 12.1806 12.2043C11.6789 12.3845 11.1567 12.5017 10.6261 12.5531C10.7056 12.6406 10.7397 12.6827 10.7943 12.7327C11.5136 13.4565 12.2363 14.177 12.9534 14.902C13.0676 15.0058 13.1451 15.1439 13.1742 15.2955C13.2033 15.4472 13.1824 15.6041 13.1147 15.7429C13.0458 15.895 12.9336 16.0234 12.7921 16.1121C12.6507 16.2008 12.4862 16.2459 12.3193 16.2418C12.124 16.2225 11.9433 16.1299 11.8136 15.9827C11.2704 15.4361 10.717 14.8997 10.1852 14.3429C10.0306 14.1815 9.9579 14.2122 9.81926 14.352C9.27267 14.9202 8.71699 15.469 8.15904 16.019C8.05544 16.1338 7.91663 16.211 7.76442 16.2384C7.61221 16.2657 7.45522 16.2417 7.31813 16.1702C7.16959 16.1008 7.04424 15.99 6.95716 15.8511C6.87007 15.7122 6.82495 15.5511 6.82722 15.3872C6.84362 15.1846 6.93816 14.9964 7.09085 14.8622C7.80449 14.1508 8.51585 13.4391 9.22495 12.727C9.27267 12.6781 9.31813 12.627 9.38517 12.5543Z" fill="white"/>
<path id="Vector_2" d="M9.97478 10.0772C9.34813 10.0736 8.73668 9.88389 8.21798 9.53224C7.69928 9.1806 7.2967 8.68282 7.06129 8.10206C6.82588 7.52129 6.76826 6.88369 6.89573 6.27013C7.0232 5.65657 7.33001 5.09469 7.77726 4.65574C8.22451 4.2168 8.79205 3.92057 9.40789 3.80462C10.0237 3.68868 10.6601 3.75824 11.2364 4.00449C11.8126 4.25074 12.3028 4.66258 12.6446 5.18778C12.9865 5.71299 13.1647 6.32788 13.1566 6.95449C13.1452 7.7894 12.8045 8.58601 12.2085 9.17087C11.6126 9.75574 10.8098 10.0815 9.97478 10.0772ZM11.5464 6.91018C11.5455 6.60387 11.4537 6.30473 11.2827 6.05061C11.1117 5.79649 10.8691 5.59884 10.5857 5.48266C10.3023 5.36649 9.99074 5.33702 9.69056 5.39799C9.39039 5.45897 9.11506 5.60764 8.89943 5.82518C8.68379 6.04272 8.53756 6.31935 8.47924 6.62005C8.42092 6.92075 8.45313 7.232 8.5718 7.51438C8.69047 7.79676 8.89026 8.03758 9.14588 8.20635C9.40149 8.37512 9.70144 8.46425 10.0077 8.46245C10.2108 8.462 10.4118 8.42145 10.5992 8.34311C10.7865 8.26478 10.9566 8.15021 11.0996 8.00598C11.2425 7.86174 11.3556 7.69069 11.4323 7.50264C11.5089 7.31459 11.5477 7.11325 11.5464 6.91018Z" fill="white"/>
</g>
</g>
<g id="66.odnoklassniki_2">
<path id="background_2" d="M10 20C15.5228 20 20 15.5228 20 10C20 4.47715 15.5228 0 10 0C4.47715 0 0 4.47715 0 10C0 15.5228 4.47715 20 10 20Z" fill="#F96600"/>
<g id="icon_2">
<path id="Vector_3" d="M9.38517 12.5543C8.41585 12.4531 7.54199 12.2133 6.79426 11.6293C6.70108 11.5565 6.60563 11.4861 6.5204 11.402C6.19313 11.0872 6.16017 10.727 6.41926 10.3565C6.64085 10.0383 7.01245 9.95312 7.39995 10.1361C7.47436 10.1737 7.54578 10.217 7.61358 10.2656C8.3065 10.7365 9.12326 10.9919 9.96102 10.9996C10.7988 11.0073 11.6201 10.7669 12.3215 10.3088C12.4556 10.2002 12.6102 10.1198 12.7761 10.0724C12.9303 10.0268 13.0955 10.0344 13.2449 10.094C13.3943 10.1535 13.5194 10.2616 13.5999 10.4008C13.8045 10.7349 13.8022 11.0599 13.5499 11.319C13.1633 11.7101 12.696 12.0122 12.1806 12.2043C11.6789 12.3845 11.1567 12.5017 10.6261 12.5531C10.7056 12.6406 10.7397 12.6827 10.7943 12.7327C11.5136 13.4565 12.2363 14.177 12.9534 14.902C13.0676 15.0058 13.1451 15.1439 13.1742 15.2955C13.2033 15.4472 13.1824 15.6041 13.1147 15.7429C13.0458 15.895 12.9336 16.0234 12.7921 16.1121C12.6507 16.2008 12.4862 16.2459 12.3193 16.2418C12.124 16.2225 11.9433 16.1299 11.8136 15.9827C11.2704 15.4361 10.717 14.8997 10.1852 14.3429C10.0306 14.1815 9.9579 14.2122 9.81926 14.352C9.27267 14.9202 8.71699 15.469 8.15904 16.019C8.05544 16.1338 7.91663 16.211 7.76442 16.2384C7.61221 16.2657 7.45522 16.2417 7.31813 16.1702C7.16959 16.1008 7.04424 15.99 6.95716 15.8511C6.87007 15.7122 6.82495 15.5511 6.82722 15.3872C6.84362 15.1846 6.93816 14.9964 7.09085 14.8622C7.80449 14.1508 8.51585 13.4391 9.22495 12.727C9.27267 12.6781 9.31813 12.627 9.38517 12.5543Z" fill="white"/>
<path id="Vector_4" d="M9.97478 10.0772C9.34813 10.0736 8.73668 9.88389 8.21798 9.53224C7.69928 9.1806 7.2967 8.68282 7.06129 8.10206C6.82588 7.52129 6.76826 6.88369 6.89573 6.27013C7.0232 5.65657 7.33001 5.09469 7.77726 4.65574C8.22451 4.2168 8.79205 3.92057 9.40789 3.80462C10.0237 3.68868 10.6601 3.75824 11.2364 4.00449C11.8126 4.25074 12.3028 4.66258 12.6446 5.18778C12.9865 5.71299 13.1647 6.32788 13.1566 6.95449C13.1452 7.7894 12.8045 8.58601 12.2085 9.17087C11.6126 9.75574 10.8098 10.0815 9.97478 10.0772ZM11.5464 6.91018C11.5455 6.60387 11.4537 6.30473 11.2827 6.05061C11.1117 5.79649 10.8691 5.59884 10.5857 5.48266C10.3023 5.36649 9.99074 5.33702 9.69056 5.39799C9.39039 5.45897 9.11506 5.60764 8.89943 5.82518C8.68379 6.04272 8.53756 6.31935 8.47924 6.62005C8.42092 6.92075 8.45313 7.232 8.5718 7.51438C8.69047 7.79676 8.89026 8.03758 9.14588 8.20635C9.40149 8.37512 9.70144 8.46425 10.0077 8.46245C10.2108 8.462 10.4118 8.42145 10.5992 8.34311C10.7865 8.26478 10.9566 8.15021 11.0996 8.00598C11.2425 7.86174 11.3556 7.69069 11.4323 7.50264C11.5089 7.31459 11.5477 7.11325 11.5464 6.91018Z" fill="white"/>
</g>
</g>
</g>
</svg>
