<svg width="60" height="60" viewBox="0 0 60 60" fill="none" xmlns="http://www.w3.org/2000/svg">
<rect width="60" height="60" rx="10" fill="#E8E8E8"/>
<g clip-path="url(#clip0_85_544)">
<path d="M44 10H16C12.6863 10 10 12.6863 10 16V44C10 47.3137 12.6863 50 16 50H44C47.3137 50 50 47.3137 50 44V16C50 12.6863 47.3137 10 44 10Z" fill="black"/>
<path d="M20.989 43.2673H20.1334L18.7758 41.3988H18.0616V43.2673H17.3333V38.3521H19.0869C19.4263 38.3521 19.7303 38.4171 19.9991 38.5473C20.2677 38.6774 20.4751 38.8587 20.6213 39.0911C20.7721 39.3188 20.8475 39.5814 20.8475 39.8789C20.8475 40.2507 20.7321 40.5691 20.5011 40.8341C20.2701 41.0943 19.9613 41.2663 19.5748 41.35L20.989 43.2673ZM18.0616 39.0144V40.7434H19.0869C19.3886 40.7434 19.6314 40.6644 19.8152 40.5064C20.0037 40.3437 20.0981 40.1345 20.0981 39.8789C20.0981 39.6233 20.0037 39.4164 19.8152 39.2584C19.6314 39.0957 19.3886 39.0144 19.0869 39.0144H18.0616Z" fill="white"/>
<path d="M22.9215 43.3369C22.6622 43.3369 22.4289 43.2741 22.2215 43.1486C22.0141 43.0185 21.8514 42.8418 21.7336 42.6187C21.6157 42.391 21.5568 42.1353 21.5568 41.8518V39.6626H22.2497V41.7961C22.2497 42.0703 22.3275 42.2934 22.4831 42.4653C22.6387 42.6373 22.839 42.7233 23.0841 42.7233C23.3387 42.7233 23.5508 42.635 23.7205 42.4584C23.8902 42.2817 23.9751 42.061 23.9751 41.7961V39.6626H24.668V43.2671H24.173L24.0104 42.7233C23.8925 42.9185 23.737 43.0696 23.5437 43.1765C23.3551 43.2834 23.1477 43.3369 22.9215 43.3369Z" fill="white"/>
<path d="M27.2512 43.3369C26.794 43.3369 26.3957 43.2207 26.0563 42.9883C25.7215 42.7512 25.4929 42.4305 25.3704 42.0262L26.0704 41.9146C26.2071 42.1749 26.3697 42.3678 26.5583 42.4932C26.7469 42.6141 26.9778 42.6746 27.2512 42.6746C27.5293 42.6746 27.7556 42.6141 27.93 42.4932C28.1045 42.3678 28.1917 42.1981 28.1917 41.9843C28.1917 41.8263 28.1421 41.6938 28.0431 41.5869C27.9489 41.48 27.8287 41.394 27.6825 41.329C27.5364 41.2639 27.3455 41.1918 27.1098 41.1128C26.794 41.0106 26.5347 40.9083 26.332 40.806C26.1293 40.7038 25.9573 40.5597 25.8159 40.3738C25.6791 40.1832 25.6108 39.9416 25.6108 39.6487C25.6108 39.3745 25.6791 39.1351 25.8159 38.9306C25.9573 38.7214 26.1505 38.5611 26.3957 38.4496C26.6408 38.338 26.9142 38.2822 27.2159 38.2822C27.6354 38.2822 27.996 38.3914 28.2977 38.6099C28.5994 38.8237 28.8139 39.1188 28.9411 39.4954L28.2553 39.6069C28.161 39.3931 28.0267 39.2304 27.8523 39.1188C27.6779 39.0026 27.4728 38.9446 27.2371 38.9446C26.9825 38.9446 26.7727 39.005 26.6078 39.1258C26.4428 39.242 26.3603 39.4024 26.3603 39.6069C26.3603 39.7603 26.4075 39.8904 26.5017 39.9973C26.6007 40.1042 26.7209 40.1902 26.8623 40.2553C27.0085 40.3204 27.2017 40.3947 27.4421 40.4784C27.7485 40.5806 28.0031 40.6852 28.2058 40.7921C28.4132 40.8944 28.5876 41.0408 28.7291 41.2314C28.8705 41.4219 28.9411 41.6613 28.9411 41.9494C28.9411 42.2284 28.8657 42.4724 28.7149 42.6815C28.5687 42.8907 28.3661 43.0534 28.1068 43.1696C27.8523 43.2811 27.5671 43.3369 27.2512 43.3369Z" fill="white"/>
<path d="M31.8682 42.6679L31.8046 43.2675H31.1611C30.7793 43.2675 30.4894 43.1745 30.2914 42.9886C30.0935 42.8027 29.9945 42.5354 29.9945 42.1868V40.2695H29.3651V39.6629H29.9945L30.1853 38.6172H30.6874V39.6629H31.8046V40.2695H30.6874V42.1868C30.6874 42.5075 30.8453 42.6679 31.1611 42.6679H31.8682Z" fill="white"/>
<path d="M34.1791 43.3372C33.8067 43.3372 33.4743 43.2581 33.1821 43.1001C32.8898 42.9421 32.6612 42.7213 32.4962 42.4378C32.3312 42.1543 32.2487 41.8313 32.2487 41.4687C32.2487 41.1061 32.3312 40.7831 32.4962 40.4996C32.6612 40.2161 32.8898 39.9953 33.1821 39.8373C33.4743 39.6746 33.8067 39.5933 34.1791 39.5933C34.5515 39.5933 34.8838 39.6746 35.1761 39.8373C35.4683 39.9953 35.6969 40.2161 35.8619 40.4996C36.0269 40.7831 36.1094 41.1061 36.1094 41.4687C36.1094 41.8313 36.0269 42.1543 35.8619 42.4378C35.6969 42.7213 35.4683 42.9421 35.1761 43.1001C34.8838 43.2581 34.5515 43.3372 34.1791 43.3372ZM34.1791 42.7097C34.5373 42.7097 34.8273 42.5958 35.0488 42.3681C35.2751 42.1403 35.3882 41.8405 35.3882 41.4687C35.3882 41.0969 35.2751 40.7971 35.0488 40.5693C34.8273 40.3369 34.5373 40.2207 34.1791 40.2207C33.8208 40.2207 33.5309 40.3369 33.3093 40.5693C33.0878 40.7971 32.977 41.0969 32.977 41.4687C32.977 41.8359 33.0878 42.1357 33.3093 42.3681C33.5309 42.5958 33.8208 42.7097 34.1791 42.7097Z" fill="white"/>
<path d="M36.8525 43.2671V39.6626H37.3545L37.5031 40.1785C37.6115 39.9973 37.7458 39.8671 37.9061 39.7881C38.0663 39.7045 38.2573 39.6626 38.4788 39.6626H38.6485L38.7051 40.318H38.3091C38.0546 40.318 37.8637 40.3901 37.7364 40.5341C37.6091 40.6782 37.5455 40.8734 37.5455 41.1197V43.2671H36.8525Z" fill="white"/>
<path d="M42.6667 41.4408C42.6667 41.5337 42.6643 41.6058 42.6596 41.6569H39.6403C39.6781 41.9777 39.8053 42.2333 40.0221 42.4239C40.239 42.6144 40.5147 42.7097 40.8495 42.7097C41.0805 42.7097 41.2855 42.6655 41.4646 42.5772C41.6485 42.4843 41.7875 42.3634 41.8818 42.2147L42.5323 42.3193C42.3909 42.6446 42.1623 42.8956 41.8465 43.0723C41.5353 43.2489 41.1889 43.3372 40.807 43.3372C40.4441 43.3372 40.1188 43.2581 39.8313 43.1001C39.5437 42.9375 39.3198 42.7143 39.1595 42.4308C38.9993 42.1473 38.9191 41.8266 38.9191 41.4687C38.9191 41.1061 38.9993 40.7831 39.1595 40.4996C39.3198 40.2161 39.5413 39.9953 39.8242 39.8373C40.107 39.6746 40.4299 39.5933 40.7929 39.5933C41.1511 39.5933 41.4717 39.6746 41.7545 39.8373C42.0421 39.9953 42.266 40.2161 42.4263 40.4996C42.5865 40.7785 42.6667 41.0922 42.6667 41.4408ZM40.7929 40.1998C40.5147 40.1998 40.2743 40.2811 40.0717 40.4438C39.8737 40.6065 39.7417 40.8249 39.6757 41.0992H41.9101C41.8488 40.8296 41.7168 40.6135 41.5141 40.4508C41.3161 40.2835 41.0757 40.1998 40.7929 40.1998Z" fill="white"/>
<path d="M23.1247 32.0006C24.2494 33.1096 26.0596 33.1096 29.68 33.1096H30.32C33.9404 33.1096 35.7506 33.1096 36.8753 32.0006C38 30.8916 38 29.1068 38 25.537V24.906C38 21.3362 38 19.5514 36.8753 18.4424C35.7506 17.3335 33.9404 17.3335 30.32 17.3335H29.68C26.0596 17.3335 24.2494 17.3335 23.1247 18.4424C22 19.5514 22 21.3362 22 24.906V25.537C22 29.1068 22 30.8916 23.1247 32.0006Z" fill="#0077FF"/>
<path fill-rule="evenodd" clip-rule="evenodd" d="M34.3531 27.819L33.2721 27.5527C33.1419 27.5159 33.0499 27.4004 33.0453 27.2662L32.9104 23.3428C32.8714 22.8236 32.4805 22.4106 32.0719 22.289C32.049 22.2821 32.0245 22.2913 32.0109 22.3108C31.9971 22.3306 32.0025 22.3579 32.0217 22.3726C32.1226 22.4496 32.4003 22.7009 32.4003 23.1343L32.3995 28.2639C32.3995 28.7592 31.9247 29.1225 31.4351 29.0019L30.3373 28.7315C30.2156 28.6895 30.1311 28.5778 30.1266 28.4488L29.9917 24.5252C29.9527 24.006 29.5618 23.593 29.1533 23.4714C29.1303 23.4645 29.1058 23.4737 29.0922 23.4932C29.0784 23.513 29.0837 23.5403 29.103 23.555C29.2039 23.632 29.4815 23.8833 29.4815 24.3167L29.4807 28.5925L29.4813 29.4468C29.4813 29.9421 29.0067 30.3054 28.517 30.1848L25.4163 29.421C24.9852 29.3149 24.6829 28.9346 24.6829 28.4986V23.361C24.6829 22.8656 25.1576 22.5024 25.6473 22.623L27.6011 23.1042V22.1781C27.6011 21.6828 28.0757 21.3195 28.5653 21.4401L30.5191 21.9213V20.9952C30.5191 20.4998 30.9937 20.1366 31.4834 20.2572L34.5841 21.0209C35.0152 21.1271 35.3175 21.5073 35.3175 21.9434V27.081C35.3175 27.5763 34.8427 27.9396 34.3531 27.819Z" fill="white"/>
</g>
<defs>
<clipPath id="clip0_85_544">
<rect width="40" height="40" fill="white" transform="translate(10 10)"/>
</clipPath>
</defs>
</svg>
