<svg width="20" height="20" viewBox="0 0 20 20" fill="none" xmlns="http://www.w3.org/2000/svg">
<g id="telegram-svgrepo-com 2" clip-path="url(#clip0_370_1285)">
<g id="Group">
<path id="Vector" d="M10 0C4.47711 0 0 4.47711 0 10C0 15.5229 4.47711 20 10 20C15.5229 20 20 15.5229 20 10C20 4.47711 15.5229 0 10 0Z" fill="#40B3E0"/>
<path id="Vector_2" d="M14.8658 5.75202L13.0797 14.7573C13.0797 14.7573 12.8299 15.3818 12.143 15.082L8.02126 11.922L6.52251 11.1976L3.99954 10.3483C3.99954 10.3483 3.61236 10.2109 3.57486 9.91116C3.53743 9.6114 4.01204 9.44905 4.01204 9.44905L14.0414 5.51468C14.0414 5.51468 14.8658 5.15249 14.8658 5.75202Z" fill="white"/>
<path id="Vector_3" d="M7.70441 14.6566C7.70441 14.6566 7.5841 14.6454 7.43418 14.1707C7.28434 13.6961 6.52246 11.1981 6.52246 11.1981L12.58 7.35121C12.58 7.35121 12.9298 7.13887 12.9173 7.35121C12.9173 7.35121 12.9797 7.38863 12.7924 7.56348C12.605 7.7384 8.03371 11.8475 8.03371 11.8475" fill="#D2E5F1"/>
<path id="Vector_4" d="M9.60178 13.134L7.97146 14.6204C7.97146 14.6204 7.84404 14.7171 7.70459 14.6565L8.01678 11.8955" fill="#B5CFE4"/>
</g>
</g>
<defs>
<clipPath id="clip0_370_1285">
<rect width="20" height="20" fill="white"/>
</clipPath>
</defs>
</svg>
